# xmcd
#
# Track frame offsets:
#	150
#	20555
#	40150
#	59823
#	79998
#	113629
#	131043
#	151413
#	171306
#	201471
#	219263
#	240189
#
# Disc length: 3358 seconds
#
# Revision: 0
# Processed by: cddbd v1.5.2PL0 Copyright (c) Steve Scherf et al.
# Submitted via: dBpowerAMP V4.0
#
DISCID=a70d1c0c
DTITLE=Shane Howard - Goanna Dreaming
DYEAR=2010
DGENRE=Alternative
TTITLE0=Earth is Singing
TTITLE1=Back in Time
TTITLE2=Miss Me darling
TTITLE3=Come Down Moses
TTITLE4=Clancey, Dooley and Don McLead
TTITLE5=uggle and Strife
TTITLE6=Kimberley Rain
TTITLE7=Oh Life
TTITLE8=Down by the River
TTITLE9=Don't Give Up on Us
TTITLE10=Mountains to the Sea
TTITLE11=She Called Me Up
EXTD=
EXTT0=
EXTT1=
EXTT2=
EXTT3=
EXTT4=
EXTT5=
EXTT6=
EXTT7=
EXTT8=
EXTT9=
EXTT10=
EXTT11=
PLAYORDER=
